<?xml version="1.0" encoding="utf-8"?>
<!-- Generator: Adobe Illustrator 16.0.0, SVG Export Plug-In . SVG Version: 6.00 Build 0)  -->
<!DOCTYPE svg PUBLIC "-//W3C//DTD SVG 1.1//EN" "http://www.w3.org/Graphics/SVG/1.1/DTD/svg11.dtd">
<svg version="1.1" id="articles" xmlns="http://www.w3.org/2000/svg" xmlns:xlink="http://www.w3.org/1999/xlink" x="0px" y="0px"
	 width="96px" height="96px" viewBox="0 0 96 96" enable-background="new 0 0 96 96" xml:space="preserve">
	 <style type="text/css">	
		@keyframes glimMe {
		  from {
			opacity: 1;
		  }
		  50%{
		  opacity:0.25;
		  }
		  to {
			opacity: 0;
		  }		  		  
		}			
		@-webkit-keyframes glimMe {
		  from {
			opacity: 1;
		  }
		  50%{
		  opacity:0.25;
		  }
		  to {
			opacity: 0;
		  }		  		  
		}	
		#line-last {
			animation: glimMe 3s linear normal infinite;
			animation-delay:0.5s;
		}	
		@keyframes swingMe {
		  from {
			-webkit-transform: rotate3d(0, 0, 1, 4deg);
			transform: rotate3d(0, 0, 1, 4deg);
		  }
		  50% {
			-webkit-transform: rotate3d(0, 0, 1, -1deg);
			transform: rotate3d(0, 0, 1, -1deg);
		  }		  
		  to {
			-webkit-transform: rotate3d(0, 0, 1, 2deg);
			transform: rotate3d(0, 0, 1, 2deg);
		  }
		}
		@-webkit-keyframes swingMe {
		  from {
			-webkit-transform: rotate3d(0, 0, 1, 4deg);
			transform: rotate3d(0, 0, 1, 4deg);
		  }
		  50% {
			-webkit-transform: rotate3d(0, 0, 1, -1deg);
			transform: rotate3d(0, 0, 1, -1deg);
		  }		  
		  to {
			-webkit-transform: rotate3d(0, 0, 1, 2deg);
			transform: rotate3d(0, 0, 1, 2deg);
		  }
		}			
		.pencil {
		  -webkit-transform-origin: right center;
		  -ms-transform-origin: top center;
		  transform-origin: top center;		  
		  animation: swingMe ease-in-out 3s infinite;
		}		
	</style>
	<path fill="#FFFFFF" stroke="#0088FF" stroke-width="1.5" stroke-miterlimit="10" d="M11.644,13.71L11.644,13.71v76.198h49.819
		c3.104,0,5.617-2.518,5.617-5.622V13.71v-0.593c0-3.578,2.9-6.479,6.479-6.479H18.714C14.807,6.639,11.644,9.806,11.644,13.71z"/>
	<g id="pencil" class="pencil">
		<path fill="#FFFFFF" stroke="#0088FF" stroke-width="1.5" stroke-miterlimit="10" d="M83.342,21.853l-8.32-3.371l1.125-2.771
			c0.31-0.765,1.179-1.138,1.949-0.831l5.551,2.256c0.758,0.311,1.136,1.185,0.816,1.951L83.342,21.853z"/>
		<polygon fill="#FFFFFF" points="79.184,20.174 79.184,20.168 75.021,18.481 56.958,64.059 65.279,67.428 83.342,21.853 	"/>
		<polygon fill="#FFFFFF" stroke="#0088FF" stroke-width="1.5" stroke-miterlimit="10" points="83.342,21.853 79.184,20.174 
			79.184,20.168 75.021,18.481 56.042,65.896 55.836,73.551 57.512,74.227 59.178,74.902 64.359,69.266 	"/>
		<polygon fill="#B5E1AC" stroke="#0088FF" stroke-width="1.5" stroke-miterlimit="10" points="79.184,20.174 79.184,20.168 
			75.021,18.481 56.958,64.059 65.279,67.428 83.342,21.853 	"/>
		<path fill="#B5E1AC" stroke="#0088FF" stroke-width="1.5" stroke-miterlimit="10" d="M57.051,77.211l2.979-3.236l-4.16-1.686
			l-0.114,4.395C55.734,77.376,56.587,77.721,57.051,77.211"/>
		<line fill="none" stroke="#0088FF" stroke-width="1.5" stroke-miterlimit="10" x1="56.742" y1="64.152" x2="65.068" y2="67.518"/>
	</g>
	<g>	
		<line fill="none" stroke="#0088FF" stroke-width="1.5" stroke-linecap="round" stroke-miterlimit="10" x1="20.059" y1="31.492" x2="58.9" y2="31.492"/>	
		<line fill="none" stroke="#0088FF" stroke-width="1.5" stroke-linecap="round" stroke-miterlimit="10" x1="20.059" y1="42.497" x2="58.9" y2="42.497"/>	
		<line fill="none" stroke="#0088FF" stroke-width="1.5" stroke-linecap="round" stroke-miterlimit="10" x1="20.059" y1="53.505" x2="47.891" y2="53.505"/>	
		<line id="line-last" fill="none" stroke="#0088ff" stroke-width="1.5" stroke-linecap="round" stroke-miterlimit="10" x1="46.059" y1="77.505" x2="53.5" y2="77.505"/>
	</g>
</svg>
